#!OML:ASF E:\Steps\Project 1\Capture day 1\Session 2\Subject.ASF
:FULLY-SPECIFIED
:DEGREES
80
root 9.27783 16.3665 8.70398 -152.515 -0.299653 179.228
lowerback -28.265 -1.22149 -6.78767
upperback -2.39909 -0.141112 -0.73199
thorax 13.0168 -0.749775 2.94915
lowerneck -0.0171658 0.169094 -4.0075
upperneck 8.869 -0.600409 6.83975
head 2.90924 -0.391811 2.94417
rclavicle 9.83984e-015 -1.19271e-015
rhumerus -34.0525 -17.7406 -80.851
rradius 28.0846
rwrist 2.97591
rhand -10.9917 -50.6155
rfingers 7.12502
rthumb 15.0285 -80.0501
lclavicle 9.83984e-015 -1.19271e-015
lhumerus -27.4046 4.84038 82.406
lradius 19.4247
lwrist -10.6607
lhand -22.7124 -12.7728
lfingers 7.12502
lthumb 3.72087 17.1744
rfemur -26.5106 9.6704 14.8309
rtibia 9.46508
rfoot -19.8333 -7.93237
rtoes -28.8778
lfemur -27.284 -10.4641 -17.0233
ltibia 9.64105
lfoot -8.26787 5.19771
ltoes -43.1138
81
root 9.27676 16.3668 8.70164 -152.513 -0.303195 179.293
lowerback -28.3074 -1.21734 -6.72109
upperback -2.36236 -0.148431 -0.705866
thorax 13.0841 -0.750338 2.93813
lowerneck -0.0359414 0.171548 -4.0179
upperneck 8.87423 -0.595392 6.83448
head 2.91425 -0.389136 2.94469
rclavicle 1.09332e-015 2.46493e-014
rhumerus -34.0634 -17.6179 -80.8951
rradius 28.1812
rwrist 2.86518
rhand -11.0088 -50.8847
rfingers 7.12502
rthumb 15.012 -80.3205
lclavicle 1.09332e-015 2.46493e-014
lhumerus -27.3548 4.82489 82.4121
lradius 19.4135
lwrist -10.6301
lhand -22.682 -12.5577
lfingers 7.12502
lthumb 3.75015 17.389
rfemur -26.5114 9.81226 14.8647
rtibia 9.46121
rfoot -19.8635 -7.92193
rtoes -28.5612
lfemur -27.2607 -10.3873 -16.9677
ltibia 9.613
lfoot -8.29156 5.13377
ltoes -43.1142
82
root 9.27761 16.3678 8.70202 -152.495 -0.324131 179.329
lowerback -28.2949 -1.22111 -6.71805
upperback -2.34878 -0.153877 -0.682774
thorax 13.0943 -0.752392 2.96128
lowerneck -0.0624723 0.162393 -4.00742
upperneck 8.87559 -0.60676 6.83607
head 2.92031 -0.393583 2.94328
rclavicle -8.94531e-016 -2.38542e-015
rhumerus -34.0255 -17.8169 -80.8163
rradius 28.1374
rwrist 3.06425
rhand -10.8552 -50.7809
rfingers 7.12502
rthumb 15.16 -80.2056
lclavicle -8.94531e-016 -2.38542e-015
lhumerus -27.3311 4.6591 82.4843
lradius 19.4263
lwrist -10.5405
lhand -23.024 -12.4312
lfingers 7.12502
lthumb 3.41988 17.5211
rfemur -26.5372 9.89051 14.8936
rtibia 9.4724
rfoot -19.8764 -8.05918
rtoes -28.7212
lfemur -27.2988 -10.382 -16.8991
ltibia 9.62532
lfoot -8.3168 5.10995
ltoes -42.617
83
root 9.2791 16.3687 8.70363 -152.496 -0.30733 179.295
lowerback -28.2395 -1.23578 -6.79669
upperback -2.33391 -0.148415 -0.680196
thorax 13.0819 -0.752761 3.01213
lowerneck -0.11315 0.146021 -3.97605
upperneck 8.87871 -0.627398 6.83665
head 2.93185 -0.401346 2.93761
rclavicle 6.95746e-016 -6.75868e-015
rhumerus -33.9821 -17.9372 -80.7672
rradius 28.1228
rwrist 3.14191
rhand -10.7059 -51.0506
rfingers 7.12502
rthumb 15.3038 -80.4644
lclavicle 6.95746e-016 -6.75868e-015
lhumerus -27.3037 4.45267 82.5619
lradius 19.473
lwrist -10.3276
lhand -23.4139 -12.6162
lfingers 7.12502
lthumb 3.04339 17.3418
rfemur -26.5741 9.9751 14.8337
rtibia 9.52296
rfoot -19.832 -8.22902
rtoes -29.008
lfemur -27.3081 -10.4144 -16.9119
ltibia 9.63207
lfoot -8.32763 5.12624
ltoes -42.194
84
root 9.27933 16.3683 8.70357 -152.487 -0.282335 179.296
lowerback -28.2556 -1.23664 -6.81753
upperback -2.31905 -0.140006 -0.671585
thorax 13.1072 -0.75071 3.03731
lowerneck -0.112168 0.144564 -3.96897
upperneck 8.87707 -0.629373 6.83453
head 2.93113 -0.402177 2.93546
rclavicle -4.17448e-015 -2.26615e-014
rhumerus -33.968 -17.9662 -80.7364
rradius 28.1259
rwrist 3.15447
rhand -10.7508 -51.3532
rfingers 7.12502
rthumb 15.2606 -80.7703
lclavicle -4.17448e-015 -2.26615e-014
lhumerus -27.2819 4.44838 82.572
lradius 19.4752
lwrist -10.3314
lhand -23.4025 -12.7285
lfingers 7.12502
lthumb 3.05439 17.2293
rfemur -26.6142 10.0741 14.7973
rtibia 9.55667
rfoot -19.8028 -8.28842
rtoes -28.6791
lfemur -27.3183 -10.3929 -16.9086
ltibia 9.64227
lfoot -8.3843 5.13453
ltoes -41.9273
85
root 9.27956 16.3681 8.70176 -152.484 -0.309649 179.354
lowerback -28.2741 -1.23655 -6.76541
upperback -2.305 -0.153589 -0.653327
thorax 13.1355 -0.754417 3.0232
lowerneck -0.0948619 0.149201 -3.97755
upperneck 8.87343 -0.623315 6.83318
head 2.92634 -0.39993 2.93653
rclavicle 5.36719e-015 -2.98177e-014
rhumerus -33.9659 -17.9946 -80.729
rradius 28.1328
rwrist 3.17583
rhand -10.7603 -51.0069
rfingers 7.12502
rthumb 15.2514 -80.4246
lclavicle 5.36719e-015 -2.98177e-014
lhumerus -27.2528 4.52178 82.5299
lradius 19.4155
lwrist -10.431
lhand -23.2204 -12.6969
lfingers 7.12502
lthumb 3.23025 17.2584
rfemur -26.5914 10.0808 14.8695
rtibia 9.51967
rfoot -19.8114 -8.27298
rtoes -28.3057
lfemur -27.3321 -10.3471 -16.8446
ltibia 9.65951
lfoot -8.43353 5.11646
ltoes -42.1567
86
root 9.27958 16.3688 8.69986 -152.504 -0.346434 179.4
lowerback -28.2254 -1.24554 -6.72044
upperback -2.29736 -0.180696 -0.642854
thorax 13.1218 -0.762533 2.99939
lowerneck -0.107619 0.153295 -3.96935
upperneck 8.87964 -0.617011 6.82301
head 2.93021 -0.39649 2.93183
rclavicle 6.75868e-015 -6.36111e-015
rhumerus -33.9449 -17.9693 -80.77
rradius 28.1276
rwrist 3.11584
rhand -10.7372 -50.8118
rfingers 7.12502
rthumb 15.2736 -80.2279
lclavicle 6.75868e-015 -6.36111e-015
lhumerus -27.2243 4.53915 82.4861
lradius 19.3546
lwrist -10.4134
lhand -23.2486 -12.6525
lfingers 7.12502
lthumb 3.20305 17.3032
rfemur -26.5341 10.0525 14.9511
rtibia 9.48096
rfoot -19.8353 -8.28059
rtoes -28.4776
lfemur -27.3115 -10.342 -16.7914
ltibia 9.66151
lfoot -8.40377 5.09458
ltoes -42.5163
87
root 9.27925 16.369 8.69872 -152.497 -0.356221 179.428
lowerback -28.1946 -1.24933 -6.69035
upperback -2.30468 -0.198744 -0.635471
thorax 13.0987 -0.768237 2.98388
lowerneck -0.104234 0.157597 -3.97028
upperneck 8.88329 -0.611416 6.81829
head 2.93041 -0.394057 2.93052
rclavicle 3.08116e-015 1.19271e-014
rhumerus -33.9249 -18.0285 -80.7607
rradius 28.0653
rwrist 3.20395
rhand -10.802 -50.7975
rfingers 7.12502
rthumb 15.2112 -80.2183
lclavicle 3.08116e-015 1.19271e-014
lhumerus -27.2273 4.66785 82.4361
lradius 19.3168
lwrist -10.5038
lhand -23.4346 -12.6461
lfingers 7.12502
lthumb 3.02337 17.3122
rfemur -26.5388 10.0787 14.9842
rtibia 9.48805
rfoot -19.8723 -8.30798
rtoes -28.5595
lfemur -27.3175 -10.2879 -16.7764
ltibia 9.67544
lfoot -8.30264 5.05201
ltoes -42.8655
88
root 9.28066 16.3667 8.69962 -152.365 -0.358732 179.47
lowerback -28.3024 -1.25163 -6.66633
upperback -2.32122 -0.209466 -0.621603
thorax 13.1373 -0.775661 2.98108
lowerneck -0.0967557 0.156851 -3.96017
upperneck 8.87728 -0.612816 6.81845
head 2.92695 -0.394645 2.92847
rclavicle -1.68967e-015 -3.45885e-014
rhumerus -33.9834 -18.0234 -80.7804
rradius 28.1834
rwrist 3.26119
rhand -10.9043 -50.8354
rfingers 7.12502
rthumb 15.1127 -80.2637
lclavicle -1.68967e-015 -3.45885e-014
lhumerus -27.2144 4.74544 82.4137
lradius 19.3262
lwrist -10.6098
lhand -23.2456 -12.6448
lfingers 7.12502
lthumb 3.20594 17.3108
rfemur -26.7213 10.142 14.9983
rtibia 9.5415
rfoot -19.9225 -8.32279
rtoes -28.5494
lfemur -27.491 -10.2177 -16.7016
ltibia 9.72049
lfoot -8.24339 5.05374
ltoes -43.2284
